<mxfile host="app.diagrams.net" modified="2023-11-13T14:29:47.841Z" agent="Mozilla/5.0 (Windows NT 10.0; Win64; x64) AppleWebKit/537.36 (KHTML, like Gecko) Chrome/119.0.0.0 Safari/537.36" etag="mwR9Px7zRtJbC8SVhkug" version="22.1.0" type="device">
  <diagram name="Trang-1" id="X9ONNm7VJsSAb0-AA7ta">
    <mxGraphModel dx="1050" dy="534" grid="1" gridSize="10" guides="1" tooltips="1" connect="1" arrows="1" fold="1" page="1" pageScale="1" pageWidth="827" pageHeight="1169" math="0" shadow="0">
      <root>
        <mxCell id="0" />
        <mxCell id="1" parent="0" />
        <mxCell id="Uh_T9utQ2s6Nnx_flTEi-2" value="" style="rounded=0;whiteSpace=wrap;html=1;" parent="1" vertex="1">
          <mxGeometry x="730" y="90" width="1020" height="970" as="geometry" />
        </mxCell>
        <mxCell id="4cfnBp6zlMkXLsjZwcuF-16" value="" style="rounded=0;whiteSpace=wrap;html=1;" parent="1" vertex="1">
          <mxGeometry x="800" y="150" width="830" height="830" as="geometry" />
        </mxCell>
        <mxCell id="4cfnBp6zlMkXLsjZwcuF-21" value="&lt;p style=&quot;margin:0px;margin-top:4px;text-align:center;&quot;&gt;&lt;i&gt;&amp;lt;&amp;lt;Interface&amp;gt;&amp;gt;&lt;/i&gt;&lt;br&gt;&lt;b&gt;JpaRepository&lt;/b&gt;&lt;/p&gt;&lt;hr size=&quot;1&quot;&gt;&lt;p style=&quot;margin:0px;margin-left:4px;&quot;&gt;&lt;br&gt;&lt;/p&gt;&lt;hr size=&quot;1&quot;&gt;&lt;p style=&quot;margin:0px;margin-left:4px;&quot;&gt;&lt;br&gt;&lt;/p&gt;" style="verticalAlign=top;align=left;overflow=fill;fontSize=12;fontFamily=Helvetica;html=1;whiteSpace=wrap;" parent="1" vertex="1">
          <mxGeometry x="900" y="860" width="190" height="100" as="geometry" />
        </mxCell>
        <mxCell id="4cfnBp6zlMkXLsjZwcuF-22" value="&lt;p style=&quot;margin:0px;margin-top:4px;text-align:center;&quot;&gt;&lt;i&gt;&amp;lt;&amp;lt;Interface&amp;gt;&amp;gt;&lt;/i&gt;&lt;br&gt;&lt;b&gt;StudentRepository &amp;lt;Student,Integer&amp;gt;&lt;/b&gt;&lt;/p&gt;&lt;hr size=&quot;1&quot;&gt;&lt;p style=&quot;margin:0px;margin-left:4px;&quot;&gt;&lt;br&gt;&lt;/p&gt;&lt;hr size=&quot;1&quot;&gt;&lt;p style=&quot;margin:0px;margin-left:4px;&quot;&gt;&lt;br&gt;&lt;/p&gt;" style="verticalAlign=top;align=left;overflow=fill;fontSize=12;fontFamily=Helvetica;html=1;whiteSpace=wrap;" parent="1" vertex="1">
          <mxGeometry x="880" y="690" width="230" height="100" as="geometry" />
        </mxCell>
        <mxCell id="4cfnBp6zlMkXLsjZwcuF-23" value="&lt;p style=&quot;margin:0px;margin-top:4px;text-align:center;&quot;&gt;&lt;b&gt;StudentServiceImpl&lt;/b&gt;&lt;/p&gt;&lt;hr size=&quot;1&quot;&gt;&lt;p style=&quot;margin:0px;margin-left:4px;&quot;&gt;-studentRepository:StudentRepository&lt;/p&gt;&lt;hr size=&quot;1&quot;&gt;&lt;p style=&quot;border-color: var(--border-color); margin: 0px 0px 0px 4px;&quot;&gt;+findStudentById(Integer studentId):Student&lt;/p&gt;&lt;p style=&quot;margin:0px;margin-left:4px;&quot;&gt;+saveStudent(Student student):void&lt;/p&gt;" style="verticalAlign=top;align=left;overflow=fill;fontSize=12;fontFamily=Helvetica;html=1;whiteSpace=wrap;" parent="1" vertex="1">
          <mxGeometry x="870" y="510" width="250" height="100" as="geometry" />
        </mxCell>
        <mxCell id="4cfnBp6zlMkXLsjZwcuF-24" value="&lt;p style=&quot;margin:0px;margin-top:4px;text-align:center;&quot;&gt;&lt;i&gt;&amp;lt;&amp;lt;Interface&amp;gt;&amp;gt;&lt;/i&gt;&lt;br&gt;&lt;b&gt;StudentService&lt;/b&gt;&lt;/p&gt;&lt;hr size=&quot;1&quot;&gt;&lt;p style=&quot;margin:0px;margin-left:4px;&quot;&gt;&lt;br&gt;&lt;/p&gt;&lt;hr size=&quot;1&quot;&gt;&lt;p style=&quot;border-color: var(--border-color); margin: 0px 0px 0px 4px;&quot;&gt;+findStudentById(Integer StudentId):Student&lt;/p&gt;&lt;p style=&quot;margin:0px;margin-left:4px;&quot;&gt;+saveStudent(Student student):void&lt;/p&gt;" style="verticalAlign=top;align=left;overflow=fill;fontSize=12;fontFamily=Helvetica;html=1;whiteSpace=wrap;" parent="1" vertex="1">
          <mxGeometry x="870" y="334" width="250" height="100" as="geometry" />
        </mxCell>
        <mxCell id="4cfnBp6zlMkXLsjZwcuF-25" value="&lt;p style=&quot;margin:0px;margin-top:4px;text-align:center;&quot;&gt;&lt;i&gt;StudentController&lt;/i&gt;&lt;/p&gt;&lt;hr size=&quot;1&quot;&gt;&lt;p style=&quot;margin:0px;margin-left:4px;&quot;&gt;-studentService:StudentService&lt;/p&gt;&lt;hr size=&quot;1&quot;&gt;&lt;p style=&quot;margin:0px;margin-left:4px;&quot;&gt;+getStudentById(Integer studentId):Student&lt;/p&gt;&lt;p style=&quot;margin:0px;margin-left:4px;&quot;&gt;+createStudent(Student student):void&lt;/p&gt;&lt;p style=&quot;margin:0px;margin-left:4px;&quot;&gt;+editStudent(Student student):void&lt;/p&gt;" style="verticalAlign=top;align=left;overflow=fill;fontSize=12;fontFamily=Helvetica;html=1;whiteSpace=wrap;" parent="1" vertex="1">
          <mxGeometry x="870" y="170" width="270" height="100" as="geometry" />
        </mxCell>
        <mxCell id="4cfnBp6zlMkXLsjZwcuF-26" value="Student" style="swimlane;fontStyle=1;align=center;verticalAlign=top;childLayout=stackLayout;horizontal=1;startSize=20;horizontalStack=0;resizeParent=1;resizeParentMax=0;resizeLast=0;collapsible=1;marginBottom=0;whiteSpace=wrap;html=1;" parent="1" vertex="1">
          <mxGeometry x="1280" y="220" width="160" height="556" as="geometry">
            <mxRectangle x="1280" y="220" width="90" height="30" as="alternateBounds" />
          </mxGeometry>
        </mxCell>
        <mxCell id="4cfnBp6zlMkXLsjZwcuF-27" value="-studentId:Integer&lt;br&gt;-studentName:String&lt;br&gt;-studentCode:Integer&lt;br&gt;-email:String&lt;br&gt;-image:String&lt;br&gt;-phone:String&lt;br&gt;-address:String&lt;br&gt;-dateOfBirth:Date&lt;br&gt;-gender:Boolean&lt;br&gt;-classId:Integer" style="text;strokeColor=none;fillColor=none;align=left;verticalAlign=top;spacingLeft=4;spacingRight=4;overflow=hidden;rotatable=0;points=[[0,0.5],[1,0.5]];portConstraint=eastwest;whiteSpace=wrap;html=1;" parent="4cfnBp6zlMkXLsjZwcuF-26" vertex="1">
          <mxGeometry y="20" width="160" height="250" as="geometry" />
        </mxCell>
        <mxCell id="4cfnBp6zlMkXLsjZwcuF-28" value="" style="line;strokeWidth=1;fillColor=none;align=left;verticalAlign=middle;spacingTop=-1;spacingLeft=3;spacingRight=3;rotatable=0;labelPosition=right;points=[];portConstraint=eastwest;strokeColor=inherit;" parent="4cfnBp6zlMkXLsjZwcuF-26" vertex="1">
          <mxGeometry y="270" width="160" height="8" as="geometry" />
        </mxCell>
        <mxCell id="4cfnBp6zlMkXLsjZwcuF-29" value="+Student()&lt;br&gt;+getter/setter" style="text;strokeColor=none;fillColor=none;align=left;verticalAlign=top;spacingLeft=4;spacingRight=4;overflow=hidden;rotatable=0;points=[[0,0.5],[1,0.5]];portConstraint=eastwest;whiteSpace=wrap;html=1;" parent="4cfnBp6zlMkXLsjZwcuF-26" vertex="1">
          <mxGeometry y="278" width="160" height="278" as="geometry" />
        </mxCell>
        <mxCell id="4cfnBp6zlMkXLsjZwcuF-30" value="is" style="endArrow=block;endSize=16;endFill=0;html=1;rounded=0;" parent="1" source="4cfnBp6zlMkXLsjZwcuF-22" target="4cfnBp6zlMkXLsjZwcuF-21" edge="1">
          <mxGeometry y="40" width="160" relative="1" as="geometry">
            <mxPoint x="1150" y="580" as="sourcePoint" />
            <mxPoint x="954" y="830" as="targetPoint" />
            <mxPoint as="offset" />
          </mxGeometry>
        </mxCell>
        <mxCell id="4cfnBp6zlMkXLsjZwcuF-31" value="" style="endArrow=diamondThin;endFill=1;endSize=24;html=1;rounded=0;exitX=0.443;exitY=0.02;exitDx=0;exitDy=0;exitPerimeter=0;entryX=0.442;entryY=0.984;entryDx=0;entryDy=0;entryPerimeter=0;" parent="1" source="4cfnBp6zlMkXLsjZwcuF-22" target="4cfnBp6zlMkXLsjZwcuF-23" edge="1">
          <mxGeometry width="160" relative="1" as="geometry">
            <mxPoint x="1150" y="680" as="sourcePoint" />
            <mxPoint x="1310" y="680" as="targetPoint" />
          </mxGeometry>
        </mxCell>
        <mxCell id="4cfnBp6zlMkXLsjZwcuF-33" value="owns" style="text;html=1;strokeColor=none;fillColor=none;align=center;verticalAlign=middle;whiteSpace=wrap;rounded=0;" parent="1" vertex="1">
          <mxGeometry x="990" y="630" width="60" height="30" as="geometry" />
        </mxCell>
        <mxCell id="4cfnBp6zlMkXLsjZwcuF-34" value="" style="endArrow=block;dashed=1;endFill=0;endSize=12;html=1;rounded=0;exitX=0.46;exitY=0;exitDx=0;exitDy=0;exitPerimeter=0;entryX=0.451;entryY=0.992;entryDx=0;entryDy=0;entryPerimeter=0;" parent="1" source="4cfnBp6zlMkXLsjZwcuF-23" target="4cfnBp6zlMkXLsjZwcuF-24" edge="1">
          <mxGeometry width="160" relative="1" as="geometry">
            <mxPoint x="995" y="510" as="sourcePoint" />
            <mxPoint x="1310" y="780" as="targetPoint" />
          </mxGeometry>
        </mxCell>
        <mxCell id="4cfnBp6zlMkXLsjZwcuF-35" value="realizes" style="text;html=1;strokeColor=none;fillColor=none;align=center;verticalAlign=middle;whiteSpace=wrap;rounded=0;" parent="1" vertex="1">
          <mxGeometry x="990" y="460" width="60" height="30" as="geometry" />
        </mxCell>
        <mxCell id="4cfnBp6zlMkXLsjZwcuF-36" value="" style="endArrow=diamondThin;endFill=1;endSize=24;html=1;rounded=0;entryX=0.433;entryY=1;entryDx=0;entryDy=0;exitX=0.467;exitY=-0.008;exitDx=0;exitDy=0;exitPerimeter=0;entryPerimeter=0;" parent="1" source="4cfnBp6zlMkXLsjZwcuF-24" target="4cfnBp6zlMkXLsjZwcuF-25" edge="1">
          <mxGeometry width="160" relative="1" as="geometry">
            <mxPoint x="985" y="330" as="sourcePoint" />
            <mxPoint x="994" y="610" as="targetPoint" />
          </mxGeometry>
        </mxCell>
        <mxCell id="4cfnBp6zlMkXLsjZwcuF-37" value="owns" style="text;html=1;strokeColor=none;fillColor=none;align=center;verticalAlign=middle;whiteSpace=wrap;rounded=0;" parent="1" vertex="1">
          <mxGeometry x="1000" y="300" width="60" height="30" as="geometry" />
        </mxCell>
        <mxCell id="4cfnBp6zlMkXLsjZwcuF-38" value="Use" style="endArrow=open;endSize=12;dashed=1;html=1;rounded=0;exitX=1;exitY=0.5;exitDx=0;exitDy=0;entryX=0.01;entryY=0.587;entryDx=0;entryDy=0;entryPerimeter=0;" parent="1" source="4cfnBp6zlMkXLsjZwcuF-24" target="4cfnBp6zlMkXLsjZwcuF-27" edge="1">
          <mxGeometry width="160" relative="1" as="geometry">
            <mxPoint x="1150" y="480" as="sourcePoint" />
            <mxPoint x="1310" y="480" as="targetPoint" />
          </mxGeometry>
        </mxCell>
        <mxCell id="4cfnBp6zlMkXLsjZwcuF-39" value="Use" style="endArrow=open;endSize=12;dashed=1;html=1;rounded=0;exitX=1;exitY=0.5;exitDx=0;exitDy=0;entryX=0.01;entryY=0.233;entryDx=0;entryDy=0;entryPerimeter=0;" parent="1" source="4cfnBp6zlMkXLsjZwcuF-23" target="4cfnBp6zlMkXLsjZwcuF-29" edge="1">
          <mxGeometry width="160" relative="1" as="geometry">
            <mxPoint x="1110" y="394" as="sourcePoint" />
            <mxPoint x="1290" y="560" as="targetPoint" />
          </mxGeometry>
        </mxCell>
        <mxCell id="4cfnBp6zlMkXLsjZwcuF-40" value="Use" style="endArrow=open;endSize=12;dashed=1;html=1;rounded=0;exitX=1;exitY=0.5;exitDx=0;exitDy=0;" parent="1" source="4cfnBp6zlMkXLsjZwcuF-22" edge="1">
          <mxGeometry width="160" relative="1" as="geometry">
            <mxPoint x="1110" y="570" as="sourcePoint" />
            <mxPoint x="1280" y="740" as="targetPoint" />
          </mxGeometry>
        </mxCell>
      </root>
    </mxGraphModel>
  </diagram>
</mxfile>
